# xmcd
#
# Track frame offsets:
#	187
#	10187
#	22212
#	34162
#	50362
#	62212
#	78497
#	94212
#	103075
#	112550
#	129637
#	141987
#	151575
#	166650
#
# Disc length: 2413 seconds
#
# Revision: 0
# Processed by: cddbd v1.5.2PL0 Copyright (c) Steve Scherf et al.
# Submitted via: EasyCDDAExtractor 11.5.0.1
#
DISCID=ad096b0e
DTITLE=Flaco Jimenez - entre humo y botellas
DYEAR=1900
DGENRE=
TTITLE0=La viejita
TTITLE1=Toma esta flor
TTITLE2=Clementina
TTITLE3=Cuarenta cartas
TTITLE4=Se me fue mi amor
TTITLE5=Nonos quieren corazon
TTITLE6=Ahora que tango un amor
TTITLE7=El gavilan
TTITLE8=Soy culpable
TTITLE9=Delegatita alta y triguena
TTITLE10=Amaneci bebiendo
TTITLE11=Hasta la vista
TTITLE12=Entre humo y botellas
TTITLE13=El suge y baja
EXTD=
EXTT0=
EXTT1=
EXTT2=
EXTT3=
EXTT4=
EXTT5=
EXTT6=
EXTT7=
EXTT8=
EXTT9=
EXTT10=
EXTT11=
EXTT12=
EXTT13=
PLAYORDER=
